<svg xmlns="http://www.w3.org/2000/svg" width="512" height="320" fill="none" viewBox="0 0 512 320"><rect width="512" height="320" fill="#23232C"/><mask id="mask0" width="121" height="288" x="196" y="32" mask-type="alpha" maskUnits="userSpaceOnUse"><rect width="121" height="288" x="196" y="32" fill="#C4C4C4"/></mask><g mask="url(#mask0)"><path fill="#4E74FD" fill-rule="evenodd" d="M266.442 429.86C279.233 410.005 297.67 338.517 297.67 282.078C297.67 207.929 268.324 171 255.335 171C242.346 171 213 207.929 213 282.078C213 338.517 231.437 410.005 244.228 429.86H266.442Z" clip-rule="evenodd"/><mask id="mask1" width="85" height="259" x="213" y="171" mask-type="alpha" maskUnits="userSpaceOnUse"><path fill="#005CC5" fill-rule="evenodd" d="M266.442 429.86C279.233 410.005 297.67 338.517 297.67 282.078C297.67 207.929 268.324 171 255.335 171C242.346 171 213 207.929 213 282.078C213 338.517 231.437 410.005 244.228 429.86H266.442Z" clip-rule="evenodd"/></mask><g mask="url(#mask1)"><path stroke="#C8E1FF" stroke-linejoin="round" d="M257.608 214.802V245.622C257.608 254.665 250.453 261.995 241.626 261.995C232.8 261.995 225.645 254.665 225.645 245.622V214.802M320.592 331.668C320.592 318.902 310.491 308.553 298.031 308.553H271.709C259.248 308.553 249.147 318.902 249.147 331.668M263.248 227.323C263.248 212.429 251.463 200.355 236.926 200.355C222.389 200.355 210.604 212.429 210.604 227.323V263.922C210.604 278.815 222.389 290.889 236.926 290.889C251.463 290.889 263.248 278.815 263.248 263.922V227.323Z"/></g><path fill="#433FF9" d="M291.949 229.286H218.721C227.921 190.392 245.923 171 255.335 171C264.748 171 282.749 190.392 291.949 229.286Z"/><path fill="#032F62" d="M243.71 177.462C246.057 178.725 250.385 179.572 255.335 179.572C260.285 179.572 264.613 178.725 266.96 177.462C262.56 173.153 258.471 171 255.335 171C255.335 171 255.335 171 255.335 171C252.199 171 248.109 173.153 243.71 177.462Z"/></g><path fill="#514EFD" stroke="#514EFD" stroke-linecap="round" stroke-linejoin="round" stroke-width="1.713" d="M301.954 129.247C301.954 154.676 281.333 175.291 255.895 175.291C230.457 175.291 209.835 154.676 209.835 129.247C209.835 99.5096 253.976 64.0171 255.895 40.9949C257.814 64.0171 301.954 100.469 301.954 129.247Z"/><mask id="mask2" width="95" height="137" x="208" y="40" mask-type="alpha" maskUnits="userSpaceOnUse"><path fill="#C8E1FF" stroke="#C8E1FF" stroke-width="1.713" d="M301.954 129.247C301.954 154.676 281.333 175.291 255.895 175.291C230.457 175.291 209.835 154.676 209.835 129.247C209.835 99.5096 253.976 64.0171 255.895 40.9949C257.814 64.0171 301.954 100.469 301.954 129.247Z"/></mask><g mask="url(#mask2)"><ellipse cx="241.24" cy="141.506" fill="#4E74FD" rx="52.34" ry="52.367"/></g><rect width="24" height="24" stroke="#C8E1FF" stroke-linejoin="round" transform="matrix(0.707107 -0.707107 0.706902 0.707311 97.2051 257.008)"/><path stroke="#C8E1FF" stroke-linejoin="round" d="M433.197 250.098L421.197 230.098L445.197 230.098L433.197 250.098Z"/><path stroke="#C8E1FF" stroke-linecap="round" stroke-linejoin="round" d="M146 175C146 167 162 167 162 159C162 151 146 151 146 143C146 135 162 135 162 127C162 119 146 119 146 111C146 103 162 103 162 95"/><path stroke="#4E74FD" stroke-linecap="round" stroke-linejoin="round" stroke-width="2" d="M314.771 205.315C310.402 205.315 310.402 196.75 306.034 196.75C301.665 196.75 301.665 205.315 297.297 205.315C292.928 205.315 292.928 196.75 288.56 196.75C284.191 196.75 284.191 205.315 279.823 205.315C275.455 205.315 275.455 196.75 271.086 196.75"/><path stroke="#4E74FD" stroke-linecap="round" stroke-linejoin="round" stroke-width="2" d="M78.3333 180L74 172L78.3333 164L87 164L91.3333 172L87 180H78.3333Z"/><rect width="16" height="16" stroke="#4E74FD" stroke-linejoin="round" stroke-width="2" transform="matrix(1 0 -0.000289166 1 347 136)"/></svg>